<svg width="52.000000" height="52.000000" viewBox="0 0 52 52" fill="none" xmlns="http://www.w3.org/2000/svg" xmlns:xlink="http://www.w3.org/1999/xlink">
	<desc>
			Created with Pixso.
	</desc>
	<defs>
		<clipPath id="clip233_3155">
			<rect id="Frame" rx="0.000000" width="51.000000" height="51.000000" transform="translate(0.500000 0.500000)" fill="white" fill-opacity="0"/>
		</clipPath>
	</defs>
	<rect id="Frame" rx="0.000000" width="51.000000" height="51.000000" transform="translate(0.500000 0.500000)" fill="#FFFFFF" fill-opacity="0"/>
	<g clip-path="url(#clip233_3155)">
		<path id="Vector" d="M19.5 6.5L4.87 6.5C2.18 6.5 0 8.68 0 11.37L0 26C0 28.68 2.18 30.87 4.87 30.87L11.43 30.87L8.96 43.56C8.92 43.8 8.92 44.04 8.98 44.27C9.04 44.5 9.15 44.72 9.3 44.9C9.46 45.09 9.65 45.24 9.87 45.34C10.08 45.44 10.32 45.5 10.56 45.5L15.82 45.5C17.24 45.5 18.49 44.57 18.92 43.23L23.65 32.01C23.68 31.95 23.7 31.88 23.72 31.82C24.15 30.26 24.37 28.65 24.37 27.03L24.37 11.37C24.37 8.68 22.18 6.5 19.5 6.5ZM47.12 6.5L32.5 6.5C29.81 6.5 27.62 8.68 27.62 11.37L27.62 26C27.62 28.68 29.81 30.87 32.5 30.87L39.06 30.87L36.59 43.56C36.54 43.8 36.55 44.04 36.61 44.27C36.67 44.5 36.78 44.72 36.93 44.91C37.08 45.09 37.27 45.24 37.49 45.34C37.71 45.44 37.94 45.5 38.18 45.5L43.45 45.5C44.86 45.5 46.12 44.57 46.54 43.23L51.28 32.01C51.3 31.95 51.32 31.88 51.34 31.81C51.78 30.26 52 28.65 52 27.03L52 11.37C52 8.68 49.81 6.5 47.12 6.5Z" fill="#00A551" fill-opacity="1.000000" fill-rule="nonzero"/>
	</g>
</svg>
