<svg width="52.000000" height="52.000000" viewBox="0 0 52 52" fill="none" xmlns="http://www.w3.org/2000/svg" xmlns:xlink="http://www.w3.org/1999/xlink">
	<desc>
			Created with Pixso.
	</desc>
	<defs>
		<clipPath id="clip233_3119">
			<rect id="shield-tick" rx="0.000000" width="23.000000" height="23.000000" transform="translate(14.500000 14.500000)" fill="white" fill-opacity="0"/>
		</clipPath>
	</defs>
	<rect id="Frame 1948755450" rx="9.500000" width="51.000000" height="51.000000" transform="translate(0.500000 0.500000)" fill="#00A650" fill-opacity="1.000000"/>
	<rect id="shield-tick" rx="0.000000" width="23.000000" height="23.000000" transform="translate(14.500000 14.500000)" fill="#FFFFFF" fill-opacity="0"/>
	<g clip-path="url(#clip233_3119)">
		<path id="shield-tick" d="M33.12 17.45L27.66 15.09C27.13 14.86 26.56 14.75 25.98 14.75C25.41 14.75 24.83 14.86 24.31 15.09L18.87 17.45C18.16 17.75 17.56 18.24 17.14 18.86C16.72 19.48 16.5 20.2 16.5 20.93L16.5 29.2C16.49 29.77 16.63 30.33 16.88 30.84C17.14 31.35 17.52 31.8 17.98 32.16L23.43 36.38C24.15 36.94 25.05 37.25 25.98 37.25C26.91 37.25 27.82 36.94 28.54 36.38L33.99 32.16C34.46 31.8 34.83 31.35 35.09 30.84C35.36 30.33 35.49 29.77 35.5 29.2L35.5 20.93C35.49 20.2 35.27 19.48 34.85 18.86C34.43 18.24 33.83 17.75 33.12 17.45ZM30.01 24.3L25.05 28.88C24.96 28.96 24.87 29.03 24.76 29.07C24.65 29.11 24.53 29.14 24.42 29.14C24.3 29.14 24.18 29.11 24.07 29.07C23.97 29.03 23.87 28.96 23.79 28.88L21.96 27.12C21.79 26.96 21.7 26.74 21.7 26.51C21.71 26.29 21.81 26.08 21.98 25.92C22.15 25.76 22.37 25.68 22.61 25.68C22.85 25.68 23.07 25.77 23.24 25.94L24.43 27.06L28.76 23.07C28.84 22.96 28.94 22.88 29.05 22.81C29.17 22.75 29.3 22.71 29.43 22.7C29.56 22.69 29.7 22.71 29.82 22.76C29.94 22.8 30.06 22.88 30.15 22.97C30.24 23.06 30.31 23.17 30.35 23.29C30.39 23.41 30.4 23.54 30.38 23.66C30.36 23.79 30.31 23.91 30.24 24.01C30.16 24.12 30.06 24.21 29.95 24.27L30.01 24.3Z" fill="#FFFFFF" fill-opacity="1.000000" fill-rule="nonzero"/>
	</g>
</svg>
