<svg width="52.000000" height="52.000000" viewBox="0 0 52 52" fill="none" xmlns="http://www.w3.org/2000/svg" xmlns:xlink="http://www.w3.org/1999/xlink">
	<desc>
			Created with Pixso.
	</desc>
	<defs>
		<clipPath id="clip233_3110">
			<rect id="flash-circle" rx="0.000000" width="23.000000" height="23.000000" transform="translate(14.500000 14.500000)" fill="white" fill-opacity="0"/>
		</clipPath>
	</defs>
	<rect id="Frame 1948755451" rx="9.500000" width="51.000000" height="51.000000" transform="translate(0.500000 0.500000)" fill="#00A650" fill-opacity="1.000000"/>
	<rect id="flash-circle" rx="0.000000" width="23.000000" height="23.000000" transform="translate(14.500000 14.500000)" fill="#FFFFFF" fill-opacity="0"/>
	<g clip-path="url(#clip233_3110)">
		<path id="flash-circle" d="M26 15C23.82 15 21.69 15.64 19.88 16.85C18.07 18.06 16.66 19.78 15.83 21.79C15 23.8 14.78 26.01 15.21 28.14C15.63 30.27 16.68 32.23 18.22 33.77C19.76 35.31 21.72 36.36 23.85 36.78C25.98 37.21 28.19 36.99 30.2 36.16C32.21 35.33 33.93 33.92 35.14 32.11C36.35 30.3 37 28.17 37 26C37 24.55 36.71 23.12 36.16 21.79C35.6 20.45 34.79 19.24 33.77 18.22C32.75 17.2 31.54 16.39 30.2 15.83C28.87 15.28 27.44 15 26 15ZM30.31 26.14L25.25 32C25.17 32.08 25.08 32.14 24.98 32.16C24.87 32.18 24.76 32.18 24.66 32.14C24.56 32.1 24.47 32.04 24.41 31.95C24.35 31.86 24.31 31.76 24.31 31.65L24.31 26.81L22.11 26.81C22.01 26.81 21.91 26.78 21.83 26.72C21.75 26.67 21.68 26.59 21.64 26.5C21.6 26.41 21.58 26.31 21.6 26.21C21.61 26.11 21.65 26.02 21.72 25.94L26.84 20C26.91 19.92 27.01 19.87 27.11 19.84C27.22 19.82 27.33 19.82 27.43 19.86C27.53 19.9 27.62 19.97 27.68 20.05C27.74 20.14 27.77 20.24 27.78 20.35L27.78 25.28L29.98 25.28C30.07 25.3 30.15 25.34 30.22 25.4C30.29 25.45 30.35 25.53 30.38 25.62C30.42 25.7 30.43 25.8 30.41 25.89C30.4 25.98 30.36 26.06 30.31 26.14Z" fill="#FFFFFF" fill-opacity="1.000000" fill-rule="nonzero"/>
	</g>
</svg>
