<svg width="55" height="30" viewBox="0 0 55 30" fill="none" xmlns="http://www.w3.org/2000/svg">
<rect x="0.5" y="0.5" width="54" height="29" rx="14.5" stroke="#50CD89"/>
<g clip-path="url(#clip0_233_2755)">
<path d="M15 25C20.5228 25 25 20.5228 25 15C25 9.47715 20.5228 5 15 5C9.47715 5 5 9.47715 5 15C5 20.5228 9.47715 25 15 25Z" fill="#F0F0F0"/>
<path d="M14.5652 14.9998H25C25 14.0972 24.8796 13.2229 24.6555 12.3911H14.5652V14.9998Z" fill="#D80027"/>
<path d="M14.5652 9.78254H23.5322C22.9201 8.78363 22.1374 7.9007 21.2248 7.17383H14.5652V9.78254Z" fill="#D80027"/>
<path d="M15 24.9998C17.3535 24.9998 19.5166 24.1864 21.2248 22.8259H8.77515C10.4833 24.1864 12.6465 24.9998 15 24.9998Z" fill="#D80027"/>
<path d="M6.46772 20.2174H23.5323C24.0237 19.4154 24.4048 18.5389 24.6555 17.6086H5.34448C5.59515 18.5389 5.97628 19.4154 6.46772 20.2174Z" fill="#D80027"/>
<path d="M9.63219 6.56164H10.5435L9.69582 7.17746L10.0196 8.17391L9.17199 7.55809L8.32437 8.17391L8.60406 7.31309C7.85773 7.93477 7.20359 8.66313 6.66453 9.47469H6.95652L6.41695 9.86668C6.33289 10.0069 6.25227 10.1494 6.175 10.2939L6.43266 11.087L5.95195 10.7377C5.83246 10.9909 5.72316 11.2497 5.62492 11.514L5.90879 12.3877H6.95652L6.10887 13.0036L6.43266 14L5.58504 13.3842L5.0773 13.7531C5.02648 14.1616 5 14.5777 5 15H15C15 9.47719 15 8.82609 15 5C13.0245 5 11.183 5.57305 9.63219 6.56164ZM10.0196 14L9.17199 13.3842L8.32437 14L8.64816 13.0036L7.80051 12.3877H8.84824L9.17199 11.3913L9.49574 12.3877H10.5435L9.69582 13.0036L10.0196 14ZM9.69582 10.0905L10.0196 11.087L9.17199 10.4711L8.32437 11.087L8.64816 10.0905L7.80051 9.47469H8.84824L9.17199 8.47824L9.49574 9.47469H10.5435L9.69582 10.0905ZM13.6066 14L12.7589 13.3842L11.9113 14L12.2351 13.0036L11.3875 12.3877H12.4352L12.7589 11.3913L13.0827 12.3877H14.1304L13.2828 13.0036L13.6066 14ZM13.2828 10.0905L13.6066 11.087L12.7589 10.4711L11.9113 11.087L12.2351 10.0905L11.3875 9.47469H12.4352L12.7589 8.47824L13.0827 9.47469H14.1304L13.2828 10.0905ZM13.2828 7.17746L13.6066 8.17391L12.7589 7.55809L11.9113 8.17391L12.2351 7.17746L11.3875 6.56164H12.4352L12.7589 5.5652L13.0827 6.56164H14.1304L13.2828 7.17746Z" fill="#0052B4"/>
</g>
<path d="M31.05 21V10.2H37.95V11.6775H32.6175V14.7075H37.05V16.185H32.6175V19.5225H37.95V21H31.05ZM39.7512 21V10.2H41.3412L46.6587 18.225V10.2H48.2487V21H46.6587L41.3412 12.9675V21H39.7512Z" fill="#1B2F45"/>
<defs>
<clipPath id="clip0_233_2755">
<rect width="20" height="20" fill="white" transform="translate(5 5)"/>
</clipPath>
</defs>
</svg>
