<svg width="32" height="32" viewBox="0 0 32 32" fill="none" xmlns="http://www.w3.org/2000/svg">
<rect width="32" height="32" rx="16" fill="#38618E"/>
<path d="M23 16C23 17.2756 22.6889 18.45 22.0667 19.5233C21.4444 20.5967 20.5967 21.4444 19.5233 22.0667C18.45 22.6889 17.2756 23 16 23C14.7244 23 13.55 22.6889 12.4767 22.0667C11.4033 21.4444 10.5556 20.5967 9.93333 19.5233C9.31111 18.45 9 17.2756 9 16C9 14.7244 9.31111 13.55 9.93333 12.4767C10.5556 11.4033 11.4033 10.5556 12.4767 9.93333C13.55 9.31111 14.7244 9 16 9C17.2756 9 18.45 9.31111 19.5233 9.93333C20.5967 10.5556 21.4444 11.4033 22.0667 12.4767C22.6889 13.55 23 14.7244 23 16ZM16.2333 14.18C15.5489 14.46 14.1956 15.0356 12.1733 15.9067C11.8311 16.0622 11.6522 16.1944 11.6367 16.3033C11.6211 16.4122 11.66 16.49 11.7533 16.5367C11.8467 16.5833 12.0178 16.6533 12.2667 16.7467L12.4067 16.7933C12.9044 16.9489 13.27 17.0267 13.5033 17.0267C13.7367 17.0267 13.9933 16.9333 14.2733 16.7467C16.1711 15.4711 17.1511 14.8256 17.2133 14.81C17.2756 14.7944 17.3222 14.8022 17.3533 14.8333C17.3844 14.8644 17.3922 14.9111 17.3767 14.9733C17.3611 15.0356 16.84 15.5489 15.8133 16.5133L15.3 16.98C15.0822 17.1667 14.9578 17.33 14.9267 17.47C14.8956 17.61 15.02 17.7578 15.3 17.9133L17.12 19.1267C17.3067 19.2822 17.4622 19.3911 17.5867 19.4533C17.7111 19.5156 17.8356 19.5311 17.96 19.5C18.2089 19.5 18.38 19.2667 18.4733 18.8C18.5978 18.0222 18.7378 17.1667 18.8933 16.2333C19.08 15.0822 19.2044 14.2578 19.2667 13.76C19.2667 13.6667 19.2589 13.5811 19.2433 13.5033C19.2278 13.4256 19.1889 13.3556 19.1267 13.2933C19.0644 13.2311 18.9711 13.2 18.8467 13.2C18.7222 13.2 18.4967 13.2622 18.17 13.3867C17.8433 13.5111 17.1978 13.7756 16.2333 14.18Z" fill="white"/>
</svg>
