<svg width="32" height="32" viewBox="0 0 32 32" fill="none" xmlns="http://www.w3.org/2000/svg">
<rect width="32" height="32" rx="16" fill="#38618E"/>
<path d="M9 9.98C9 9.73111 9.10111 9.50556 9.30333 9.30333C9.50556 9.10111 9.74667 9 10.0267 9H21.9733C22.2533 9 22.4944 9.10111 22.6967 9.30333C22.8989 9.50556 23 9.73111 23 9.98V22.02C23 22.2689 22.8989 22.4944 22.6967 22.6967C22.4944 22.8989 22.2533 23 21.9733 23H10.0267C9.74667 23 9.50556 22.8989 9.30333 22.6967C9.10111 22.4944 9 22.2689 9 22.02V9.98ZM13.34 20.7133V14.4133H11.24V20.7133H13.34ZM12.2667 13.5267C12.64 13.5267 12.9356 13.4256 13.1533 13.2233C13.3711 13.0211 13.4722 12.7644 13.4567 12.4533C13.4411 12.1422 13.3322 11.8778 13.13 11.66C12.9278 11.4422 12.6478 11.3333 12.29 11.3333C11.9322 11.3333 11.6444 11.4422 11.4267 11.66C11.2089 11.8778 11.1 12.1422 11.1 12.4533C11.1 12.7644 11.2089 13.0211 11.4267 13.2233C11.6444 13.4256 11.9244 13.5267 12.2667 13.5267ZM16.56 20.7133V17.1667C16.56 16.9489 16.5911 16.7778 16.6533 16.6533C16.7156 16.4667 16.84 16.2956 17.0267 16.14C17.2133 15.9844 17.4467 15.9067 17.7267 15.9067C18.1 15.9067 18.3722 16.0311 18.5433 16.28C18.7144 16.5289 18.8 16.8867 18.8 17.3533V20.7133H20.9V17.0733C20.9 16.14 20.6744 15.4322 20.2233 14.95C19.7722 14.4678 19.1889 14.2267 18.4733 14.2267C17.9756 14.2267 17.5556 14.3511 17.2133 14.6C16.9644 14.7556 16.7467 14.9889 16.56 15.3V14.4133H14.46C14.4911 14.6622 14.4911 15.7822 14.46 17.7733V20.7133H16.56Z" fill="white"/>
</svg>
