<svg width="32" height="32" viewBox="0 0 32 32" fill="none" xmlns="http://www.w3.org/2000/svg">
<rect width="32" height="32" rx="16" fill="#38618E"/>
<path d="M16 9C14.6933 9 13.7211 9.01556 13.0833 9.04667C12.4456 9.07778 11.8933 9.18667 11.4267 9.37333C10.96 9.56 10.5478 9.83222 10.19 10.19C9.83222 10.5478 9.56 10.96 9.37333 11.4267C9.18667 11.8933 9.07778 12.4456 9.04667 13.0833C9.01556 13.7211 9 14.6933 9 16C9 17.3067 9.01556 18.2789 9.04667 18.9167C9.07778 19.5544 9.18667 20.1067 9.37333 20.5733C9.56 21.04 9.83222 21.4522 10.19 21.81C10.5478 22.1678 10.96 22.44 11.4267 22.6267C11.8933 22.8133 12.4456 22.9222 13.0833 22.9533C13.7211 22.9844 14.6933 23 16 23C17.3067 23 18.2789 22.9844 18.9167 22.9533C19.5544 22.9222 20.1067 22.8133 20.5733 22.6267C21.04 22.44 21.4522 22.1678 21.81 21.81C22.1678 21.4522 22.44 21.04 22.6267 20.5733C22.8133 20.1067 22.9222 19.5544 22.9533 18.9167C22.9844 18.2789 23 17.3067 23 16C23 14.6933 22.9844 13.7211 22.9533 13.0833C22.9222 12.4456 22.8133 11.8933 22.6267 11.4267C22.44 10.96 22.1678 10.5478 21.81 10.19C21.4522 9.83222 21.04 9.56 20.5733 9.37333C20.1067 9.18667 19.5544 9.07778 18.9167 9.04667C18.2789 9.01556 17.3067 9 16 9ZM15.3933 10.26H16C17.3067 10.26 18.2556 10.2756 18.8467 10.3067C19.3444 10.3378 19.7567 10.4156 20.0833 10.54C20.41 10.6644 20.69 10.8433 20.9233 11.0767C21.1567 11.31 21.3356 11.59 21.46 11.9167C21.5844 12.2433 21.6622 12.6556 21.6933 13.1533C21.7244 13.7444 21.74 14.6933 21.74 16C21.74 17.3067 21.7244 18.2556 21.6933 18.8467C21.6622 19.3444 21.5844 19.7567 21.46 20.0833C21.3356 20.41 21.1567 20.69 20.9233 20.9233C20.69 21.1567 20.41 21.3356 20.0833 21.46C19.7567 21.5844 19.3444 21.6622 18.8467 21.6933C18.2244 21.7244 17.2756 21.74 16 21.74C14.7244 21.74 13.7756 21.7244 13.1533 21.6933C12.6556 21.6622 12.2433 21.5844 11.9167 21.46C11.59 21.3356 11.31 21.1567 11.0767 20.9233C10.8433 20.69 10.6644 20.41 10.54 20.0833C10.4156 19.7567 10.3378 19.3444 10.3067 18.8467C10.2756 18.2244 10.26 17.2678 10.26 15.9767C10.26 14.6856 10.2756 13.7444 10.3067 13.1533C10.3378 12.6556 10.4156 12.2433 10.54 11.9167C10.6644 11.59 10.8433 11.31 11.0767 11.0767C11.31 10.8433 11.59 10.6644 11.9167 10.54C12.2433 10.4156 12.6711 10.3378 13.2 10.3067C13.7289 10.2756 14.46 10.26 15.3933 10.26ZM19.7333 11.4267C19.5156 11.4267 19.3211 11.5044 19.15 11.66C18.9789 11.8156 18.8933 12.01 18.8933 12.2433C18.8933 12.4767 18.9789 12.6789 19.15 12.85C19.3211 13.0211 19.5233 13.1067 19.7567 13.1067C19.99 13.1067 20.1844 13.0211 20.34 12.85C20.4956 12.6789 20.5733 12.4767 20.5733 12.2433C20.5733 12.01 20.4956 11.8156 20.34 11.66C20.1844 11.5044 19.9822 11.4267 19.7333 11.4267ZM16 12.4067C15.3467 12.4067 14.74 12.5622 14.18 12.8733C13.62 13.1844 13.1767 13.62 12.85 14.18C12.5233 14.74 12.36 15.3467 12.36 16C12.36 16.6533 12.5233 17.26 12.85 17.82C13.1767 18.38 13.62 18.8156 14.18 19.1267C14.74 19.4378 15.3467 19.5933 16 19.5933C16.6533 19.5933 17.2522 19.43 17.7967 19.1033C18.3411 18.7767 18.7689 18.3411 19.08 17.7967C19.3911 17.2522 19.5467 16.6533 19.5467 16C19.5467 15.3467 19.3911 14.7478 19.08 14.2033C18.7689 13.6589 18.3411 13.2233 17.7967 12.8967C17.2522 12.57 16.6533 12.4067 16 12.4067ZM16 13.6667C16.4044 13.6667 16.7933 13.7678 17.1667 13.97C17.54 14.1722 17.8278 14.46 18.03 14.8333C18.2322 15.2067 18.3333 15.5956 18.3333 16C18.3333 16.4044 18.2322 16.7933 18.03 17.1667C17.8278 17.54 17.54 17.8278 17.1667 18.03C16.7933 18.2322 16.4044 18.3333 16 18.3333C15.3467 18.3333 14.7944 18.1078 14.3433 17.6567C13.8922 17.2056 13.6667 16.6533 13.6667 16C13.6667 15.3467 13.8922 14.7944 14.3433 14.3433C14.7944 13.8922 15.3467 13.6667 16 13.6667Z" fill="white"/>
</svg>
