<svg width="32" height="32" viewBox="0 0 32 32" fill="none" xmlns="http://www.w3.org/2000/svg">
<rect width="32" height="32" rx="16" fill="#38618E"/>
<path d="M23 16.0467C23 14.7711 22.6889 13.5967 22.0667 12.5233C21.4444 11.45 20.5967 10.5944 19.5233 9.95667C18.45 9.31889 17.2756 9 16 9C14.7244 9 13.55 9.31889 12.4767 9.95667C11.4033 10.5944 10.5556 11.45 9.93333 12.5233C9.31111 13.5967 9 14.7711 9 16.0467C9 17.1978 9.25667 18.2711 9.77 19.2667C10.2833 20.2622 10.9911 21.0867 11.8933 21.74C12.7956 22.3933 13.8067 22.8133 14.9267 23V18.1H13.1067V16.0467H14.9267V14.5067C14.9267 13.6356 15.16 12.9589 15.6267 12.4767C16.0933 11.9944 16.7311 11.7533 17.54 11.7533C17.8511 11.7533 18.2089 11.7689 18.6133 11.8L19.1267 11.8933V13.62H18.24C17.8356 13.62 17.54 13.7211 17.3533 13.9233C17.1667 14.1256 17.0733 14.3978 17.0733 14.74V16.0467H19.0333L18.7067 18.1H17.0733V23C18.1933 22.8133 19.2044 22.3933 20.1067 21.74C21.0089 21.0867 21.7167 20.2622 22.23 19.2667C22.7433 18.2711 23 17.1978 23 16.0467Z" fill="white"/>
</svg>
