<svg width="186" height="48" viewBox="0 0 186 48" fill="none" xmlns="http://www.w3.org/2000/svg">
<path d="M40.8 11.9999L20.4001 0L0 11.9999V33.8398H36.0255L20.4001 43.0397L8.39539 36.2397H0L20.4001 47.9997L40.8 35.9998V29.0398H4.69615V14.5199L20.4001 5.27996L36.0255 14.5199V26.6398H40.8V11.9999Z" fill="#00A650"/>
<path d="M15.6923 15.9999H19.6154V19.9999H15.6923V15.9999Z" fill="#00A650"/>
<path d="M15.6923 21.5998H19.6154V25.5998H15.6923V21.5998Z" fill="#00A650"/>
<path d="M21.1846 15.9999H25.1077V19.9999H21.1846V15.9999Z" fill="#00A650"/>
<path d="M21.1846 21.5998H25.1077V25.5998H21.1846V21.5998Z" fill="#00A650"/>
<path d="M66.4716 45.5996C64.4541 45.5996 62.4681 45.2109 60.5136 44.4335C58.5592 43.6431 56.9263 42.5936 55.6149 41.285L58.017 37.67C59.0888 38.7713 60.3749 39.6589 61.8755 40.3326C63.3886 40.9934 64.9206 41.3238 66.4716 41.3238C68.0226 41.3238 69.3277 40.9805 70.3868 40.2937C71.446 39.607 71.9756 38.7195 71.9756 37.6311C71.9756 37.2035 71.8874 36.8083 71.7108 36.4455C71.5343 36.0698 71.2695 35.7459 70.9164 35.4738C70.5634 35.2017 70.2103 34.9685 69.8572 34.7741C69.5042 34.5668 69.0439 34.3789 68.4765 34.2105C67.9217 34.0291 67.4615 33.893 67.0958 33.8023C66.7427 33.6987 66.2762 33.5821 65.6961 33.4525C64.41 33.1415 63.2436 32.7658 62.197 32.3253C61.1504 31.8718 60.1858 31.3146 59.3031 30.6538C58.4205 29.993 57.7333 29.1897 57.2415 28.2438C56.7497 27.285 56.5038 26.2225 56.5038 25.0564C56.5038 22.6983 57.4243 20.7936 59.2653 19.3424C61.1063 17.8913 63.4958 17.1657 66.4338 17.1657C68.3126 17.1657 70.0401 17.4766 71.6163 18.0986C73.1925 18.7205 74.4849 19.5497 75.4937 20.5863L73.3185 24.1818C72.562 23.3785 71.5469 22.7177 70.2734 22.1994C69.0124 21.6812 67.7073 21.422 66.3581 21.422C64.8702 21.422 63.6471 21.7459 62.6888 22.3938C61.7431 23.0416 61.2702 23.8773 61.2702 24.9009C61.2702 26.7797 63.1805 28.1143 67.0012 28.9046C67.4804 29.0083 67.928 29.1184 68.3441 29.235C68.7602 29.3516 69.315 29.533 70.0086 29.7792C70.7021 30.0254 71.3263 30.291 71.8811 30.5761C72.4359 30.8611 73.0222 31.2369 73.6401 31.7033C74.2706 32.1568 74.7939 32.6492 75.21 33.1804C75.6387 33.6987 75.9918 34.3271 76.2692 35.0656C76.5466 35.8042 76.6853 36.5946 76.6853 37.4367C76.6853 39.8338 75.7143 41.7968 73.7725 43.3257C71.8306 44.8416 69.397 45.5996 66.4716 45.5996Z" fill="#00A650"/>
<path d="M102.825 17.6516H108.518V45.1137H103.903V24.9787L95.8643 39.8273H93.2541L85.1967 25.0176V45.1137H80.6005V17.6516H86.3315L94.5781 32.7334L102.825 17.6516Z" fill="#00A650"/>
<path d="M133.428 45.1137L131.272 39.2637H119.11L116.935 45.1137H111.979L122.514 17.6516H127.981L138.516 45.1137H133.428ZM120.736 34.8907H129.645L125.181 22.8214L120.736 34.8907Z" fill="#00A650"/>
<path d="M156.976 45.1137L150.091 34.8907H146.592V45.1137H141.996V17.6516H153.099C155.595 17.6516 157.682 18.4808 159.359 20.1393C161.049 21.7978 161.894 23.8709 161.894 26.3586C161.894 28.4317 161.282 30.2198 160.059 31.7228C158.848 33.2258 157.266 34.1975 155.312 34.6381L162.518 45.1137H156.976ZM146.592 22.1023V30.751H153.023C154.208 30.751 155.192 30.3364 155.974 29.5071C156.768 28.6649 157.165 27.6284 157.165 26.3975C157.165 25.1666 156.768 24.143 155.974 23.3267C155.192 22.5104 154.208 22.1023 153.023 22.1023H146.592Z" fill="#00A650"/>
<path d="M184.383 17.6516V22.1023H176.325V45.1137H171.71V22.1023H163.615V17.6516H184.383Z" fill="#00A650"/>
<path d="M165.398 2.55514L163.283 6.53152L165.549 10.7945H164.434L162.237 6.53152L164.294 2.55514H165.398ZM160.285 2.55514L162.342 6.53152L160.146 10.7945H159.03L161.285 6.53152L159.181 2.55514H160.285ZM162.9 6.11358V6.92557H161.668V6.11358H162.9Z" fill="#00A650"/>
<path d="M168.842 2.3999C169.431 2.3999 169.903 2.45961 170.26 2.57902C170.624 2.69047 170.891 2.88551 171.062 3.16413C171.232 3.44276 171.317 3.82487 171.317 4.31048C171.317 4.66075 171.282 4.98316 171.213 5.2777C171.143 5.56429 171.023 5.80709 170.852 6.00611C170.69 6.19717 170.453 6.32454 170.143 6.38823V6.43599C170.67 6.52356 171.031 6.75044 171.224 7.11663C171.426 7.47486 171.53 7.93659 171.538 8.5018C171.546 9.05905 171.468 9.52077 171.306 9.88696C171.143 10.2452 170.876 10.5119 170.504 10.687C170.132 10.8622 169.628 10.9497 168.993 10.9497C168.567 10.9497 168.137 10.9258 167.703 10.8781C167.277 10.8383 166.859 10.7905 166.448 10.7348L166.518 9.88696C166.781 9.91085 167.033 9.93473 167.273 9.95861C167.521 9.97453 167.765 9.98647 168.005 9.99443C168.245 10.0024 168.489 10.0064 168.737 10.0064C169.171 10.0064 169.516 9.95861 169.772 9.86308C170.035 9.75959 170.225 9.58844 170.341 9.34962C170.465 9.11079 170.527 8.79236 170.527 8.39433C170.527 8.09182 170.484 7.82912 170.399 7.60622C170.322 7.37536 170.167 7.19624 169.934 7.06887C169.71 6.9415 169.376 6.87781 168.935 6.87781H167.447V6.05387H168.935C169.253 6.05387 169.504 6.01009 169.69 5.92252C169.884 5.83495 170.027 5.7235 170.12 5.58817C170.213 5.44488 170.271 5.28567 170.295 5.11053C170.326 4.92743 170.341 4.74036 170.341 4.5493C170.333 4.19903 170.279 3.9403 170.178 3.77313C170.078 3.59799 169.907 3.48256 169.667 3.42684C169.435 3.36315 169.113 3.33131 168.702 3.33131C168.323 3.33131 167.955 3.34325 167.598 3.36713C167.25 3.38305 166.94 3.40295 166.669 3.42684L166.587 2.61484C166.983 2.5432 167.362 2.49145 167.726 2.45961C168.098 2.4198 168.47 2.3999 168.842 2.3999Z" fill="#00A650"/>
<path d="M176.182 2.41184C176.345 2.41184 176.574 2.4198 176.868 2.43573C177.162 2.45165 177.472 2.50339 177.798 2.59096L177.705 3.35519C177.534 3.33927 177.375 3.32733 177.228 3.31937C177.089 3.3114 176.938 3.30742 176.775 3.30742C176.612 3.30742 176.415 3.30742 176.182 3.30742C175.787 3.30742 175.454 3.35121 175.183 3.43878C174.912 3.52634 174.695 3.69352 174.532 3.9403C174.37 4.18708 174.253 4.5493 174.184 5.02694C174.114 5.50459 174.079 6.13348 174.079 6.91363C174.079 7.51069 174.095 8.01221 174.126 8.41821C174.156 8.82421 174.226 9.14662 174.335 9.38544C174.451 9.6163 174.621 9.78347 174.846 9.88696C175.078 9.99045 175.392 10.0422 175.787 10.0422C176.244 10.0422 176.581 9.97055 176.798 9.82726C177.023 9.676 177.166 9.45708 177.228 9.1705C177.298 8.88391 177.333 8.53762 177.333 8.13162C177.333 7.67786 177.29 7.31565 177.205 7.04498C177.128 6.77432 176.98 6.57928 176.763 6.45987C176.547 6.3325 176.241 6.26881 175.845 6.26881C175.59 6.26881 175.353 6.30066 175.137 6.36434C174.92 6.42803 174.699 6.54346 174.474 6.71063C174.249 6.86985 173.99 7.09673 173.696 7.39128L173.649 6.86587C173.905 6.49171 174.149 6.20115 174.381 5.99417C174.614 5.77923 174.865 5.63196 175.137 5.55235C175.415 5.46478 175.741 5.421 176.113 5.421C176.678 5.421 177.12 5.50857 177.437 5.6837C177.755 5.85884 177.98 6.14542 178.111 6.54346C178.243 6.93354 178.309 7.46292 178.309 8.13162C178.309 8.55354 178.278 8.93964 178.216 9.28991C178.154 9.63222 178.034 9.92677 177.856 10.1735C177.678 10.4203 177.422 10.6114 177.089 10.7467C176.756 10.8741 176.318 10.9378 175.776 10.9378C175.21 10.9378 174.749 10.8741 174.393 10.7467C174.036 10.6114 173.761 10.3885 173.568 10.078C173.382 9.76755 173.25 9.35359 173.173 8.83615C173.103 8.31074 173.068 7.65796 173.068 6.87781C173.068 5.9066 173.13 5.12645 173.254 4.53736C173.386 3.94826 173.579 3.50246 173.835 3.19995C174.091 2.88949 174.412 2.68251 174.8 2.57902C175.195 2.46757 175.656 2.41184 176.182 2.41184Z" fill="#00A650"/>
<path d="M182.449 2.3999C183.139 2.3999 183.685 2.54718 184.088 2.84172C184.491 3.13627 184.777 3.59799 184.948 4.22689C185.126 4.85579 185.215 5.67176 185.215 6.67481C185.215 7.67786 185.126 8.49384 184.948 9.12273C184.777 9.75163 184.491 10.2134 184.088 10.5079C183.685 10.8024 183.139 10.9497 182.449 10.9497C181.767 10.9497 181.225 10.8024 180.822 10.5079C180.419 10.2134 180.129 9.75163 179.951 9.12273C179.78 8.49384 179.695 7.67786 179.695 6.67481C179.695 5.67176 179.78 4.85579 179.951 4.22689C180.129 3.59799 180.419 3.13627 180.822 2.84172C181.225 2.54718 181.767 2.3999 182.449 2.3999ZM182.449 3.31937C182.116 3.31937 181.837 3.38305 181.612 3.51042C181.388 3.62983 181.206 3.82089 181.066 4.0836C180.935 4.3463 180.838 4.69259 180.776 5.12247C180.722 5.54439 180.694 6.06184 180.694 6.67481C180.694 7.27983 180.722 7.79727 180.776 8.22715C180.838 8.65703 180.935 9.00332 181.066 9.26603C181.206 9.52873 181.388 9.72377 181.612 9.85114C181.837 9.97055 182.116 10.0303 182.449 10.0303C182.782 10.0303 183.061 9.97055 183.286 9.85114C183.518 9.72377 183.7 9.52873 183.832 9.26603C183.971 9.00332 184.068 8.65703 184.123 8.22715C184.185 7.79727 184.216 7.27983 184.216 6.67481C184.216 6.06184 184.185 5.54439 184.123 5.12247C184.068 4.69259 183.971 4.3463 183.832 4.0836C183.7 3.82089 183.518 3.62983 183.286 3.51042C183.061 3.38305 182.782 3.31937 182.449 3.31937Z" fill="#00A650"/>
</svg>
